<svg width="8875" height="2000" viewBox="0 0 8875 2000" fill="none" xmlns="http://www.w3.org/2000/svg">
<g clip-path="url(#clip0_10_41)">
<path d="M673 1710V290H977V964L843 868H1651L1515 964V290H1819V1710H1515V1028L1651 1124H843L977 1028V1710H673ZM2464.88 1734C2355.54 1734 2260.21 1711.33 2178.88 1666C2097.54 1619.33 2034.21 1554 1988.88 1470C1943.54 1386 1920.88 1287.33 1920.88 1174C1920.88 1060.67 1943.54 962.667 1988.88 880C2034.21 796 2097.54 730.667 2178.88 684C2260.21 637.333 2355.54 614 2464.88 614C2574.21 614 2669.54 637.333 2750.88 684C2832.21 730.667 2895.54 796 2940.88 880C2986.21 962.667 3008.88 1060.67 3008.88 1174C3008.88 1287.33 2986.21 1386 2940.88 1470C2895.54 1554 2832.21 1619.33 2750.88 1666C2669.54 1711.33 2574.21 1734 2464.88 1734ZM2464.88 1504C2539.54 1504 2597.54 1475.33 2638.88 1418C2680.21 1359.33 2700.88 1278 2700.88 1174C2700.88 1070 2680.21 989.333 2638.88 932C2597.54 873.333 2539.54 844 2464.88 844C2390.21 844 2332.21 873.333 2290.88 932C2249.54 989.333 2228.88 1070 2228.88 1174C2228.88 1278 2249.54 1359.33 2290.88 1418C2332.21 1475.33 2390.21 1504 2464.88 1504ZM3284.61 1710L2966.61 638H3268.61L3452.61 1364L3650.61 638H3894.61L4092.61 1364L4278.61 638H4580.61L4262.61 1710H3970.61L3772.61 1040L3574.61 1710H3284.61ZM5250.34 1734C5175.68 1734 5110.34 1718 5054.34 1686C4999.68 1654 4957.01 1609.33 4926.34 1552L4920.34 1710H4634.34V290H4934.34V790C4962.34 740.667 5003.68 699.333 5058.34 666C5113.01 631.333 5177.01 614 5250.34 614C5341.01 614 5419.68 637.333 5486.34 684C5553.01 729.333 5604.34 794 5640.34 878C5677.68 962 5696.34 1060.67 5696.34 1174C5696.34 1287.33 5677.68 1386 5640.34 1470C5604.34 1554 5553.01 1619.33 5486.34 1666C5419.68 1711.33 5341.01 1734 5250.34 1734ZM5166.34 1504C5233.01 1504 5286.34 1475.33 5326.34 1418C5367.68 1359.33 5388.34 1278 5388.34 1174C5388.34 1070 5368.34 989.333 5328.34 932C5288.34 873.333 5235.01 844 5168.34 844C5119.01 844 5076.34 857.333 5040.34 884C5005.68 909.333 4979.01 946.667 4960.34 996C4943.01 1045.33 4934.34 1104.67 4934.34 1174C4934.34 1242 4943.01 1300.67 4960.34 1350C4979.01 1399.33 5005.68 1437.33 5040.34 1464C5076.34 1490.67 5118.34 1504 5166.34 1504ZM5782.39 1710V638H6082.39V1710H5782.39ZM5776.39 506V266H6086.39V506H5776.39ZM6224.89 1710V1474L6814.89 862H6248.89V638H7174.89V874L6574.89 1486H7190.89V1710H6224.89ZM7271.38 1710V1474L7861.38 862H7295.38V638H8221.38V874L7621.38 1486H8237.38V1710H7271.38Z" fill="#FFB224"/>
</g>
<defs>
<clipPath id="clip0_10_41">
<rect width="8875" height="2000" fill="white"/>
</clipPath>
</defs>
</svg>
